HIERARCHY
ROOT RootJoint
{
    OFFSET   0.000000   0.000000   0.000000
    CHANNELS 6 Xposition Yposition Zposition Xrotation Yrotation Zrotation
    JOINT pelvis_lowerback
    {
        OFFSET   0.000000   0.093605   0.000000
        CHANNELS 3 Xrotation Yrotation Zrotation
        JOINT lowerback_torso
        {
            OFFSET   0.000000   0.100000   0.000000
            CHANNELS 3 Xrotation Yrotation Zrotation
            JOINT torso_head
            {
                OFFSET   0.000000   0.282350   0.000000
                CHANNELS 3 Xrotation Yrotation Zrotation
                End Site
                {
                    OFFSET   0.000000   0.192650   0.000000
                }
            }
            JOINT rTorso_Clavicle
            {
                OFFSET  -0.001000   0.157500   0.000000
                CHANNELS 3 Xrotation Yrotation Zrotation
                JOINT rShoulder
                {
                    OFFSET  -0.117647   0.000000   0.000000
                    CHANNELS 3 Xrotation Yrotation Zrotation
                    JOINT rElbow
                    {
                        OFFSET  -0.245000   0.000000   0.000000
                        CHANNELS 3 Xrotation Yrotation Zrotation
                        JOINT rWrist
                        {
                            OFFSET  -0.240000   0.000000   0.000000
                            CHANNELS 3 Xrotation Yrotation Zrotation
                            End Site
                            {
                                OFFSET  -0.116353  -0.002500   0.000000
                            }
                        }
                    }
                }
            }
            JOINT lTorso_Clavicle
            {
                OFFSET   0.001000   0.157500   0.000000
                CHANNELS 3 Xrotation Yrotation Zrotation
                JOINT lShoulder
                {
                    OFFSET   0.117647   0.000000   0.000000
                    CHANNELS 3 Xrotation Yrotation Zrotation
                    JOINT lElbow
                    {
                        OFFSET   0.245000   0.000000   0.000000
                        CHANNELS 3 Xrotation Yrotation Zrotation
                        JOINT lWrist
                        {
                            OFFSET   0.240000   0.000000   0.000000
                            CHANNELS 3 Xrotation Yrotation Zrotation
                            End Site
                            {
                                OFFSET   0.116353  -0.002500   0.000000
                            }
                        }
                    }
                }
            }
        }
    }
    JOINT rHip
    {
        OFFSET  -0.100000  -0.051395   0.000000
        CHANNELS 3 Xrotation Yrotation Zrotation
        JOINT rKnee
        {
            OFFSET   0.000000  -0.410000   0.000000
            CHANNELS 3 Xrotation Yrotation Zrotation
            JOINT rAnkle
            {
                OFFSET   0.000000  -0.390000   0.000000
                CHANNELS 3 Xrotation Yrotation Zrotation
                JOINT rToeJoint
                {
                    OFFSET   0.000000  -0.050000   0.130000
                    CHANNELS 3 Xrotation Yrotation Zrotation
                    End Site
                    {
                        OFFSET  -0.010000   0.002000   0.060000
                    }
                }
            }
        }
    }
    JOINT lHip
    {
        OFFSET   0.100000  -0.051395   0.000000
        CHANNELS 3 Xrotation Yrotation Zrotation
        JOINT lKnee
        {
            OFFSET   0.000000  -0.410000   0.000000
            CHANNELS 3 Xrotation Yrotation Zrotation
            JOINT lAnkle
            {
                OFFSET   0.000000  -0.390000   0.000000
                CHANNELS 3 Xrotation Yrotation Zrotation
                JOINT lToeJoint
                {
                    OFFSET   0.000000  -0.050000   0.130000
                    CHANNELS 3 Xrotation Yrotation Zrotation
                    End Site
                    {
                        OFFSET   0.010000   0.002000   0.060000
                    }
                }
            }
        }
    }
}
MOTION
Frames: 7
Frame Time:   0.008333
 -1.882505   0.867685   4.548691  92.671784  88.143224 -92.075383   0.719602  -1.491007  -2.192039   1.904382   0.188317   2.073413   0.680518   3.488640  -0.270535   5.492518  -5.224791  11.220884  12.671250  15.724165  51.264062  -0.001294  29.910817   0.005940   7.091214   4.036422  -9.803201   3.477023   4.638828 -10.507308  12.444938 -10.152304 -50.381947  -0.002540 -38.050348  -0.004070   4.999357  -6.898298  12.518965 -29.913784   3.190171  -8.840509  69.933968  -0.014326  -0.014423  -6.792658  -9.007027   3.970488  -1.364242   0.001949   0.002555 -13.923079  -6.178218  -5.618434  39.375019   0.000326   0.000767 -27.768800  -3.717787   9.574894   0.566893  -0.000072   0.000001
 -1.878599   0.867737   4.549795 109.545856  88.077654 -108.979130   0.803479  -1.552975  -2.142860   1.835793   0.194375   2.060750   0.664897   3.548900  -0.272545   5.518930  -5.182447  11.219687  12.836827  15.606902  51.208046  -0.001196  29.728808   0.005644   7.104165   4.048886  -9.811321   3.465526   4.551196 -10.493504  12.217895 -10.309956 -50.333836  -0.003108 -38.461556  -0.005087   5.047804  -6.825373  12.534568 -30.343036   3.448139  -8.711832  68.273270  -0.018462  -0.020091  -7.141447  -8.900368   3.990607  -1.329967   0.001569   0.002306 -13.556408  -6.355483  -5.455552  39.228552   0.000150   0.000037 -27.898208  -4.153749   9.260016   0.524555  -0.000124   0.000002
 -1.874596   0.867640   4.551022 123.931316  87.854688 -123.412591   0.877608  -1.611416  -2.093494   1.758416   0.200737   2.053783   0.644743   3.607486  -0.273872   5.553739  -5.148892  11.200365  12.998979  15.493957  51.159742  -0.001063  29.560779   0.005324   7.119073   4.073889  -9.801822   3.446335   4.469411 -10.450657  11.997892 -10.463576 -50.287518  -0.003650 -38.862294  -0.005921   5.110084  -6.838114  12.564167 -30.744806   3.697180  -8.577594  66.478358  -0.022004  -0.025579  -7.475836  -8.798619   4.009913  -1.294632   0.001258   0.002120 -13.225478  -6.489036  -5.256488  39.075140  -0.000010  -0.000634 -27.572238  -4.542766   9.075785   0.955286   0.000181   0.000083
 -1.870569   0.867607   4.552229 134.185448  87.536098 -133.658028   0.942751  -1.659304  -2.087693   1.676099   0.209418   2.025864   0.623962   3.663057  -0.278474   5.583542  -5.114895  11.185735  13.149011  15.388079  51.111387  -0.000931  29.402257   0.004988   7.132713   4.090180  -9.796106   3.421417   4.389740 -10.408960  11.787798 -10.607475 -50.236203  -0.003995 -39.236365  -0.006415   5.172723  -6.865186  12.614413 -31.170410   3.962787  -8.507939  64.714034  -0.023870  -0.029402  -7.790410  -8.703646   4.027788  -1.259913   0.000998   0.001955 -12.877121  -6.658982  -5.118691  38.930213  -0.000086  -0.001040 -27.814588  -4.947658   8.755582   0.824381  -0.000056   0.000063
 -1.866517   0.867591   4.553472 141.663611  87.160542 -141.118372   1.006931  -1.709292  -2.084613   1.596742   0.213667   1.993160   0.604159   3.714789  -0.284371   5.608514  -5.082005  11.166123  13.287139  15.289521  51.063501  -0.000805  29.255258   0.004644   7.145972   4.107460  -9.797203   3.392935   4.310791 -10.367451  11.587501 -10.744917 -50.187741  -0.004186 -39.587581  -0.006650   5.234987  -6.901023  12.670236 -31.606663   4.217522  -8.449120  63.035687  -0.024421  -0.032006  -8.085295  -8.615037   4.044762  -1.230233   0.000787   0.001781 -12.525423  -6.831896  -4.985492  38.758345  -0.000149  -0.001445 -28.031344  -5.336623   8.457259   0.716917  -0.000188   0.000048
 -1.862425   0.867562   4.554762 147.191516  86.754952 -146.627106   1.070282  -1.759345  -2.080394   1.523438   0.214586   1.960972   0.586115   3.762947  -0.290038   5.630273  -5.051223  11.142070  13.415244  15.197026  51.015799  -0.000690  29.118634   0.004305   7.159042   4.126214  -9.805141   3.363261   4.234084 -10.326504  11.398057 -10.875325 -50.142246  -0.004262 -39.916869  -0.006701   5.296469  -6.942861  12.726640 -32.045470   4.458741  -8.390856  61.460253  -0.023990  -0.033549  -8.361178  -8.532170   4.060920  -1.205994   0.000618   0.001598 -12.170989  -7.008936  -4.848668  38.577647  -0.000189  -0.001782 -28.236865  -5.710283   8.174529   0.628112  -0.000254   0.000037
 -1.858282   0.867503   4.556096 151.374298  86.331113 -150.790004   1.131145  -1.809248  -2.075232   1.455964   0.212674   1.930364   0.569671   3.807759  -0.295188   5.650211  -5.023225  11.115252  13.534853  15.109691  50.968800  -0.000589  28.991225   0.003979   7.171633   4.144638  -9.818611   3.333941   4.160717 -10.286533  11.219964 -10.998195 -50.099415  -0.004255 -40.225000  -0.006626   5.356538  -6.987306  12.782266 -32.481076   4.685677  -8.332705  59.988282  -0.022904  -0.034227  -8.619045  -8.454659   4.076313  -1.186576   0.000483   0.001414 -11.815139  -7.186071  -4.707529  38.394747  -0.000212  -0.002051 -28.438291  -6.064840   7.904055   0.554198  -0.000280   0.000021
